<?xml version="1.0" standalone="no"?>
<!DOCTYPE svg PUBLIC "-//W3C//DTD SVG 20010904//EN"
 "http://www.w3.org/TR/2001/REC-SVG-20010904/DTD/svg10.dtd">
<svg version="1.0" xmlns="http://www.w3.org/2000/svg"
 width="1550.000000pt" height="1551.000000pt" viewBox="0 0 1550.000000 1551.000000"
 preserveAspectRatio="xMidYMid meet">
<metadata>
Created by potrace 1.16, written by Peter Selinger 2001-2019
</metadata>
<g transform="translate(0.000000,1551.000000) scale(0.100000,-0.100000)"
fill="#000000" stroke="none">
<path d="M5540 11682 c0 -10 -3 -22 -7 -26 -4 -3 -8 -16 -10 -28 -2 -12 -9
-26 -16 -30 -9 -6 -9 -8 1 -8 16 0 15 -25 -2 -43 -8 -8 -12 -24 -9 -40 3 -15
1 -27 -4 -27 -5 0 -10 -6 -10 -12 -5 -73 -26 -237 -33 -253 -19 -42 -31 -378
-28 -813 2 -302 6 -455 14 -460 5 -4 15 -61 22 -127 22 -232 101 -674 161
-904 25 -93 35 -161 23 -142 -9 13 -51 7 -62 -9 -3 -4 -15 -10 -27 -14 -18 -6
-22 -2 -26 21 -5 37 -11 -73 -8 -162 2 -77 26 -309 40 -395 5 -30 7 -57 5 -59
-2 -2 -4 0 -4 6 0 6 -9 9 -20 6 -11 -3 -20 -9 -20 -13 0 -4 -36 -18 -80 -31
-44 -12 -80 -26 -80 -30 0 -3 -29 -15 -65 -25 -36 -10 -65 -22 -65 -26 0 -3
-34 -16 -75 -29 -41 -12 -75 -25 -75 -29 0 -4 -29 -15 -65 -25 -36 -11 -65
-22 -65 -25 0 -4 -35 -17 -77 -30 -43 -13 -84 -29 -90 -36 -7 -7 -31 -15 -53
-19 -22 -4 -46 -12 -53 -19 -13 -12 -110 -46 -132 -46 -8 0 -20 -6 -27 -13 -7
-7 -40 -21 -73 -32 -33 -10 -62 -21 -65 -25 -3 -4 -38 -17 -77 -29 -40 -13
-73 -26 -73 -31 0 -4 -13 -10 -28 -13 l-29 -6 -7 -258 c-9 -353 -7 -1143 4
-1248 16 -154 81 -235 187 -235 82 0 28 -30 698 383 143 88 317 196 388 239
70 43 187 115 260 160 189 116 208 128 289 177 40 24 152 93 249 152 97 60
179 109 183 109 3 0 33 -42 67 -92 160 -239 372 -508 397 -502 146 31 526 71
815 85 288 15 673 1 982 -36 116 -14 218 -27 227 -29 24 -6 80 61 254 305 158
221 245 357 360 567 l73 133 -46 22 c-26 12 -58 32 -71 45 -14 12 -31 22 -38
22 -7 0 -19 7 -27 15 -8 8 -34 24 -58 36 -24 13 -48 29 -52 36 -4 7 -15 13
-22 13 -8 0 -23 8 -33 18 -10 10 -39 28 -65 40 -26 12 -47 25 -47 30 0 4 -19
16 -43 27 -56 27 -70 44 -53 70 7 11 22 45 34 75 12 30 37 93 56 140 41 98 43
110 17 110 -66 0 -590 119 -772 175 -119 37 -296 97 -324 109 -16 8 -41 17
-55 21 -27 8 -183 71 -209 85 -9 5 -95 47 -191 93 -96 47 -192 97 -213 111
-21 15 -55 35 -76 46 -41 20 -152 94 -265 175 -119 86 -317 257 -426 371 -143
148 -339 394 -383 480 -35 69 -103 615 -108 864 -1 66 -4 86 -9 65 -4 -16 -8
-25 -9 -19 0 6 -22 17 -47 24 -25 7 -51 18 -58 25 -6 7 -41 22 -76 35 -35 13
-70 29 -78 36 -7 8 -19 14 -26 14 -9 0 -16 20 -20 52 -4 29 -11 57 -15 63 -17
21 -69 345 -88 545 -5 44 -9 57 -13 41 -5 -22 -7 -23 -21 -9 -8 9 -31 19 -50
23 -19 4 -44 13 -56 21 -21 13 -23 13 -23 -4z"/>
<path d="M9850 7768 c-95 -182 -190 -350 -278 -493 l-99 -159 41 -27 c78 -50
358 -221 372 -226 8 -3 19 10 30 34 103 237 167 401 217 563 50 162 77 252 77
260 0 3 -27 12 -60 19 -33 8 -60 17 -60 20 0 4 -33 15 -72 26 -40 10 -85 24
-100 31 -15 8 -29 14 -31 14 -2 0 -19 -28 -37 -62z"/>
<path d="M10145 6709 c22 -12 42 -25 45 -29 3 -4 25 -17 49 -30 25 -12 50 -27
57 -34 7 -6 35 -24 64 -41 28 -16 94 -57 146 -90 52 -33 113 -71 135 -85 23
-14 63 -38 90 -55 27 -16 67 -41 90 -55 23 -14 63 -38 89 -55 26 -16 66 -41
89 -55 48 -28 119 -73 171 -105 117 -74 222 -136 268 -160 149 -77 282 33 282
235 0 34 -4 41 -25 46 -14 3 -25 10 -25 14 0 4 -30 15 -67 25 -38 10 -70 21
-73 25 -3 4 -43 17 -90 30 -47 12 -87 25 -90 29 -3 4 -36 16 -75 26 -38 10
-72 21 -75 25 -3 4 -44 17 -92 30 -49 13 -88 26 -88 30 0 3 -34 14 -75 25 -41
10 -75 21 -75 25 0 4 -39 17 -87 30 -49 13 -90 26 -93 30 -3 4 -36 15 -75 25
-38 10 -72 22 -75 26 -3 4 -43 17 -90 29 -47 13 -87 26 -90 30 -3 4 -43 17
-90 30 -47 12 -87 26 -90 30 -3 4 -21 10 -40 14 l-35 7 40 -22z"/>
<path d="M7665 6290 c-198 -14 -516 -55 -635 -83 l-55 -12 -43 -85 c-89 -172
-197 -469 -243 -669 -44 -188 -62 -281 -55 -281 10 0 82 34 86 40 3 5 30 18
60 30 30 12 57 25 60 29 3 4 31 18 63 30 31 13 57 26 57 30 0 4 22 15 49 25
37 13 52 25 61 47 7 16 14 28 16 27 1 -2 -15 -89 -37 -193 -21 -105 -52 -278
-69 -385 -53 -350 -62 -488 -67 -988 l-5 -464 22 12 c12 6 19 14 16 18 -4 3
21 18 54 34 34 15 59 31 56 36 -6 11 72 78 86 74 5 -1 12 7 15 18 3 11 8 18
12 16 8 -5 5 30 -10 149 -30 234 -29 835 1 1146 19 192 96 658 99 598 1 -26
27 -30 52 -8 13 11 38 27 56 36 18 8 33 19 33 24 0 5 9 9 20 9 11 0 20 -5 20
-12 0 -7 5 -6 13 4 6 8 27 22 45 29 17 8 32 20 32 26 0 7 4 13 10 13 5 0 7
-12 5 -27 -2 -16 -13 -92 -24 -170 -25 -169 -47 -413 -57 -612 l-7 -144 34 19
c19 10 39 26 46 35 7 9 26 22 43 29 16 7 30 16 30 21 0 4 20 18 45 30 25 12
45 26 45 30 0 4 16 14 35 23 19 9 35 21 35 25 0 5 18 18 41 30 22 12 50 30 61
41 12 11 27 20 34 20 7 0 17 6 21 13 4 8 28 24 53 38 25 13 51 32 58 42 7 9
20 17 28 17 8 0 17 6 20 14 3 7 26 24 52 37 25 13 57 34 71 47 13 12 30 22 36
22 7 0 15 7 19 15 3 8 10 15 17 15 6 0 23 9 37 21 l26 20 13 -63 c14 -74 49
-403 60 -568 4 -63 9 -102 11 -87 2 16 10 31 19 34 8 3 27 17 41 29 14 13 31
24 39 24 7 0 16 7 19 15 4 8 12 15 18 15 7 0 28 14 46 30 18 17 38 30 43 30
21 0 -24 472 -67 714 -40 221 -92 462 -101 468 -6 5 -3 8 6 8 10 0 19 -15 26
-42 6 -24 25 -97 43 -163 117 -447 180 -1030 166 -1550 -3 -132 -8 -251 -11
-265 -3 -14 -10 -72 -15 -130 -9 -96 -24 -195 -37 -244 -3 -10 -1 -16 4 -13 6
4 28 -9 50 -27 21 -19 61 -47 89 -64 122 -72 360 -225 366 -236 5 -6 6 3 3 19
-16 110 -12 102 -55 109 -21 3 -45 12 -52 19 -7 7 -36 22 -64 32 l-52 18 -5
446 c-4 393 -8 473 -31 677 -43 387 -72 561 -143 863 -27 112 -33 156 -25 159
7 2 18 9 25 16 6 7 33 21 60 31 26 10 47 21 47 24 0 4 27 17 60 30 33 13 60
27 60 31 0 4 18 13 41 20 22 8 41 16 43 19 11 19 -67 225 -153 405 l-49 103
-114 21 c-62 12 -189 31 -283 42 -93 11 -176 23 -183 25 -24 9 -527 12 -637 5z
m1271 -2877 c-15 -15 -216 132 -216 158 0 5 11 -2 24 -14 75 -70 87 -74 136
-46 11 6 6 8 -17 9 -40 0 -43 15 -6 25 19 4 23 9 14 15 -9 5 -2 11 24 20 55
18 29 33 -49 28 -71 -4 -83 2 -38 19 23 9 24 11 6 12 -12 1 -38 -6 -57 -14
-45 -19 -73 -18 -32 0 19 9 24 14 13 15 -10 0 -18 5 -18 10 0 6 8 10 18 10 14
0 15 2 2 10 -13 8 -13 10 2 10 9 0 23 6 30 13 7 7 24 18 38 24 24 11 23 12
-15 13 -37 2 -38 2 -13 10 15 4 35 15 44 24 8 9 23 16 32 17 14 0 13 2 -3 9
-17 7 -17 9 -2 9 9 1 17 6 17 12 0 7 -11 8 -30 4 -49 -11 -35 11 20 31 52 18
69 40 26 32 -14 -3 -31 -1 -38 3 -9 6 -8 9 7 10 20 0 20 1 0 8 -17 7 -16 8 9
15 15 4 26 12 23 19 -2 7 8 17 22 23 l26 10 3 -274 c1 -151 0 -277 -2 -279z"/>
<path d="M6642 2995 c-6 -13 -16 -52 -22 -87 -63 -361 -217 -1002 -347 -1438
-122 -413 -337 -1032 -401 -1158 l-17 -32 -2523 0 c-2222 0 -2538 2 -2645 16
-284 36 -439 115 -522 265 l-30 54 2 259 c2 198 6 270 18 310 9 28 20 114 24
191 5 77 14 154 21 170 7 17 14 86 17 155 3 87 11 144 25 188 15 47 17 67 9
75 -17 17 -36 -8 -37 -51 0 -20 -8 -59 -16 -87 -9 -28 -19 -105 -22 -177 -4
-76 -12 -140 -21 -162 -8 -20 -18 -86 -21 -153 -4 -65 -15 -154 -25 -198 -10
-44 -19 -111 -19 -150 0 -38 -7 -108 -15 -155 -9 -47 -18 -137 -21 -200 -5
-95 -2 -127 14 -188 50 -185 191 -314 420 -386 l83 -26 2591 0 c2298 0 2589
-2 2584 -15 -5 -13 242 -15 2184 -15 1934 0 2189 2 2184 15 -5 13 41 15 357
17 l364 3 -3 125 c-4 143 -13 165 -56 137 -22 -15 -68 -17 -399 -17 l-373 0
-21 38 c-22 38 -182 470 -222 597 -44 137 -35 129 -353 329 -35 22 -114 73
-175 113 -62 40 -199 127 -305 194 -106 67 -245 156 -308 197 -63 41 -131 85
-150 97 -112 72 -180 115 -217 138 l-42 27 -27 -48 c-69 -123 -186 -306 -240
-377 -15 -20 -15 -20 -34 5 -46 59 -151 223 -209 326 -64 114 -188 379 -211
449 -7 22 -23 63 -35 91 -23 53 -51 74 -283 220 -34 21 -126 81 -205 131 -173
113 -191 124 -243 156 -22 14 -48 32 -56 41 -14 13 -16 12 -26 -9z"/>
</g>
</svg>
